<svg width="400" height="518" xmlns="http://www.w3.org/2000/svg">
  <!-- Background -->
  <rect width="400" height="518" fill="#ffffff"/>
  
  <!-- Header bar -->
  <rect width="400" height="80" fill="#78350f" opacity="0.1"/>
  <rect x="40" y="30" width="150" height="8" fill="#78350f" rx="4"/>
  <rect x="40" y="48" width="100" height="4" fill="#78350f" opacity="0.5" rx="2"/>
  
  <!-- Section 1 -->
  <rect x="40" y="120" width="80" height="6" fill="#78350f" rx="3"/>
  <rect x="40" y="138" width="320" height="3" fill="#e5e7eb" rx="1.5"/>
  <rect x="40" y="148" width="320" height="3" fill="#e5e7eb" rx="1.5"/>
  <rect x="40" y="158" width="280" height="3" fill="#e5e7eb" rx="1.5"/>
  
  <!-- Section 2 -->
  <rect x="40" y="190" width="80" height="6" fill="#78350f" rx="3"/>
  <rect x="40" y="208" width="320" height="3" fill="#e5e7eb" rx="1.5"/>
  <rect x="40" y="218" width="300" height="3" fill="#e5e7eb" rx="1.5"/>
  <rect x="40" y="228" width="320" height="3" fill="#e5e7eb" rx="1.5"/>
  <rect x="40" y="238" width="250" height="3" fill="#e5e7eb" rx="1.5"/>
  
  <rect x="40" y="260" width="320" height="3" fill="#e5e7eb" rx="1.5"/>
  <rect x="40" y="270" width="280" height="3" fill="#e5e7eb" rx="1.5"/>
  <rect x="40" y="280" width="320" height="3" fill="#e5e7eb" rx="1.5"/>
  
  <!-- Section 3 -->
  <rect x="40" y="320" width="80" height="6" fill="#78350f" rx="3"/>
  <rect x="40" y="338" width="150" height="3" fill="#e5e7eb" rx="1.5"/>
  <rect x="40" y="348" width="180" height="3" fill="#e5e7eb" rx="1.5"/>
  <rect x="40" y="358" width="140" height="3" fill="#e5e7eb" rx="1.5"/>
  
  <!-- Border -->
  <rect width="400" height="518" fill="none" stroke="#e5e7eb" stroke-width="2"/>
  
  <!-- Template name overlay -->
  <rect x="0" y="478" width="400" height="40" fill="#78350f" opacity="0.95"/>
  <text x="200" y="503" font-family="Arial, sans-serif" font-size="16" font-weight="600" fill="#ffffff" text-anchor="middle">Artistic</text>
</svg>